<svg xmlns="http://www.w3.org/2000/svg" width="128" height="128" viewBox="0 0 188 232">
  <path fill="#ffffff" fill-rule="evenodd" d="M 114.00 45.00 C 110.00 43.83, 102.67 42.50, 99.00 42.00 C 95.33 41.50, 96.17 41.33, 92.00 42.00 C 87.83 42.67, 78.83 44.33, 74.00 46.00 C 69.17 47.67, 66.50 49.50, 63.00 52.00 C 59.50 54.50, 55.67 58.00, 53.00 61.00 C 50.33 64.00, 47.00 69.83, 45.00 74.00 C 43.00 78.17, 41.67 86.00, 41.00 91.00 C 40.33 96.00, 40.33 107.67, 41.00 113.00 C 41.67 118.33, 43.17 126.67, 44.00 131.00 C 44.83 135.33, 46.83 143.17, 48.00 146.00 C 49.17 148.83, 52.17 154.00, 54.00 156.00 C 55.83 158.00, 59.17 161.67, 61.00 163.00 C 62.83 164.33, 67.17 166.67, 70.00 168.00 C 72.83 169.33, 78.83 171.17, 83.00 172.00 C 87.17 172.83, 94.83 173.67, 100.00 174.00 C 105.17 174.33, 111.17 174.00, 114.00 174.00 C 116.83 174.00, 122.17 173.17, 125.00 172.00 C 127.83 170.83, 132.50 168.00, 135.00 166.00 C 137.50 164.00, 141.17 159.67, 143.00 156.00 C 144.83 152.33, 146.83 145.83, 148.00 141.00 C 149.17 136.17, 150.00 126.67, 150.00 120.00 C 150.00 113.33, 149.17 103.50, 148.00 98.00 C 146.83 92.50, 144.67 85.17, 143.00 82.00 C 141.33 78.83, 137.83 74.33, 135.00 72.00 C 132.17 69.67, 126.50 66.83, 122.00 66.00 C 117.50 65.17, 108.33 65.33, 103.00 66.00 C 97.67 66.67, 89.33 69.00, 85.00 71.00 C 80.67 73.00, 75.67 77.00, 74.00 79.00 C 72.33 81.00, 70.33 84.67, 70.00 87.00 C 69.67 89.33, 69.67 96.67, 70.00 100.00 C 70.33 103.33, 71.67 109.50, 73.00 113.00 C 74.33 116.50, 77.00 122.33, 79.00 125.00 C 81.00 127.67, 84.67 131.33, 87.00 133.00 C 89.33 134.67, 93.67 136.83, 96.00 137.00 C 98.33 137.17, 102.50 136.83, 105.00 136.00 C 107.50 135.17, 110.83 133.67, 112.00 132.00 C 113.17 130.33, 114.00 126.67, 114.00 124.00 C 114.00 121.33, 113.17 117.17, 112.00 115.00 C 110.83 112.83, 108.00 109.83, 106.00 108.00 C 104.00 106.17, 100.83 103.33, 99.00 102.00 C 97.17 100.67, 95.00 98.50, 95.00 97.00 C 95.00 95.50, 95.67 93.33, 97.00 92.00 C 98.33 90.67, 101.33 89.00, 104.00 89.00 C 106.67 89.00, 111.17 90.17, 114.00 92.00 C 116.83 93.83, 120.33 97.33, 122.00 100.00 C 123.67 102.67, 125.50 107.50, 126.00 111.00 C 126.50 114.50, 126.33 121.33, 126.00 125.00 C 125.67 128.67, 124.50 133.83, 123.00 137.00 C 121.50 140.17, 118.50 144.33, 116.00 146.00 C 113.50 147.67, 108.67 149.67, 105.00 150.00 C 101.33 150.33, 95.83 149.83, 93.00 149.00 C 90.17 148.17, 85.33 146.00, 83.00 144.00 C 80.67 142.00, 76.83 137.50, 74.00 134.00 C 71.17 130.50, 67.83 125.00, 66.00 122.00 C 64.17 119.00, 62.33 114.00, 61.00 111.00 C 59.67 108.00, 58.33 101.83, 58.00 97.00 C 57.67 92.17, 58.00 83.83, 58.00 80.00 C 58.00 76.17, 59.33 70.50, 61.00 67.00 C 62.67 63.50, 66.33 58.50, 69.00 56.00 C 71.67 53.50, 77.50 50.33, 82.00 49.00 C 86.50 47.67, 94.00 46.00, 98.00 46.00 C 102.00 46.00, 110.00 46.17, 114.00 45.00 Z"/>
</svg>
